<svg id="exit2" xmlns="http://www.w3.org/2000/svg" width="24" height="24" viewBox="0 0 24 24">
  <path id="Path_99" data-name="Path 99" d="M12.4,11.6a2.407,2.407,0,0,0,2.4-2.4V4.4a2.4,2.4,0,0,0-4.8,0V9.2A2.407,2.407,0,0,0,12.4,11.6Z" transform="translate(-0.4 -2)" fill="#ff6969"/>
  <path id="Path_100" data-name="Path 100" d="M22.52,4.98h0A1.639,1.639,0,0,0,21.2,4.5a1.846,1.846,0,0,0-1.8,1.8,2.516,2.516,0,0,0,.48,1.32h0a8.154,8.154,0,0,1,2.4,5.88,8.4,8.4,0,0,1-16.8,0A8.058,8.058,0,0,1,8,7.62H8A1.927,1.927,0,0,0,8.6,6.3,1.846,1.846,0,0,0,6.8,4.5a2.516,2.516,0,0,0-1.32.48h0a12,12,0,1,0,17.04,0Z" transform="translate(-2 -1.5)" fill="#ff6969"/>
</svg>
